# xmcd
#
# Track frame offsets:
#	150
#	11520
#	26132
#	39582
#	58125
#	70545
#	85640
#	98870
#	112310
#	128740
#
# Disc length: 1893
#
# Revision: 3
# Processed by: cddbd v1.5.1PL0 Copyright (c) Steve Scherf et al.
# Submitted via: CDWizzard Release:4.14
# Normalized: r1:TDELIM( - ),TSWAP
#
DISCID=8007630a
DTITLE=Several - Country Music Classics Volume XX 1975-1980
DYEAR=1900
DGENRE=
TTITLE0=Willie Nelson - On The Road Again
TTITLE1=The Bellamy Brothers - If I Said You Had A Beautiful Body Would You HOld It Against Me
TTITLE2=Dolly Parton - Here You Come Again
TTITLE3=Don Williams - I Believe In You
TTITLE4=Freddy Fender - Wasted Days And Wasted Nights
TTITLE5=Waylon Jennings - Luckenbach, Texas (Back To The Basics Of Love)
TTITLE6=Crystal Gayle - Talking In Your Sleep
TTITLE7=Glen Campbell - Southern Nights
TTITLE8=Oak Ridge Boys - I'll Be True To You
TTITLE9=Mickey Gilley - Don't All The Girls Get Prettier At Closing Time
EXTD=
EXTT0=
EXTT1=
EXTT2=
EXTT3=
EXTT4=
EXTT5=
EXTT6=
EXTT7=
EXTT8=
EXTT9=
PLAYORDER=
